<?xml version="1.0" encoding="utf-8"?>
<!-- Generator: Adobe Illustrator 27.4.1, SVG Export Plug-In . SVG Version: 6.00 Build 0)  -->
<svg version="1.1" id="Logo" xmlns="http://www.w3.org/2000/svg" xmlns:xlink="http://www.w3.org/1999/xlink" x="0px" y="0px"
	 viewBox="0 0 140 32" style="enable-background:new 0 0 140 32;" xml:space="preserve">
<style type="text/css">
	.st0{fill:#63A844;}
</style>
<path id="icon-Logo" class="st0" d="M54,19l-0.2,0.2c-0.1,0.1-3.1,3.1-4.2,6.1h-5.2c1.2-4.4,6.9-9,7-9.1l0.3-0.2l-0.3-0.2
	c-0.1-0.1-5-4.2-6.9-8.9h5.3c1.2,3.7,3.9,5.8,4,5.9l0.2,0.2l0.2-0.2c0.1-0.1,2.8-2.3,4.1-5.9h5.3c-2,4.7-7,8.8-7,8.9L56.1,16
	l0.3,0.2c0.1,0.1,5.8,4.6,7.1,9.1h-5.2c-1-2.9-4.1-6-4.2-6.1L54,19L54,19z M34.4,25.7c3.9,0,6.4-1.6,7.3-2.3
	c-0.6-0.3-2.6-1.3-2.9-1.5c-0.4,0.5-1.8,0.9-4,0.9c-2.7,0-3.9-1.2-3.9-5.1v-0.3h0.3c4.5,0,7.9-0.8,10.8-2.7c0.1-0.2,0.2-1,0.2-1.6
	c0-3-2-6.6-7.8-6.6c-6.1,0-9.1,3.2-9.1,9.6C25.3,22.8,28,25.7,34.4,25.7L34.4,25.7z M30.8,14.7c0-2.8,0.4-5.6,3.7-5.6
	c1.7,0,2.9,0.8,2.9,2.9c0,0.6-0.4,1.3-0.4,1.4L37,13.6l-0.2,0.1c-1.6,0.9-2.5,1.3-5.7,1.3h-0.3L30.8,14.7z M21.5,15.9
	c0-6.5-3.3-9.7-9.9-9.7H4.3v19.4h7.3C18.2,25.6,21.5,22.5,21.5,15.9z M9.6,9.2h2.1c0.5,0,0.9,0.1,1.5,0.2c1.7,0.9,2.5,2.6,2.5,6.5
	c0,4.3-1,6.1-3.1,6.7l-0.9,0.1H9.6V9.2L9.6,9.2z M130.6,25.3V11.8c0-1.9-0.2-2.5-1.6-2.5c-2.5,0-3.5,1.7-3.5,1.8l-0.1,0.1v14.2h-5.2
	V11.8c0-1.9-0.2-2.5-1.6-2.5c-2.5,0-3.5,1.7-3.5,1.8l-0.1,0.1v14.2h-5.1V10.7c0-1.2-1.2-2.4-2.6-3.1c1.1-0.3,4-1.2,4.2-1.2
	c0.6,0.2,2,0.9,2.4,1.5L114,8l0.2-0.2c0,0,2.3-1.5,5.4-1.5c2.2,0,3.8,0.4,4.7,1.3l0.2,0.1l0.2-0.1c1.9-0.9,3.7-1.3,5.3-1.3
	c4.2,0,5.7,1.7,5.7,3.3v15.6L130.6,25.3L130.6,25.3z M72.1,16.1c0,4.9,1.3,6.7,4.2,6.7c2.2,0,3.3-0.4,3.7-0.9c0.4,0.2,2.4,1.2,3,1.5
	c-0.8,0.6-3.1,2.3-6.8,2.3c-6.4,0-9.7-3.3-9.7-9.6c0-6.3,3.3-9.6,9.7-9.6c3.7,0,6,1.6,6.8,2.3c-0.6,0.3-2.6,1.3-3,1.5
	c-0.4-0.5-1.5-0.9-3.6-0.9C73.4,9.4,72.1,11.1,72.1,16.1L72.1,16.1z M94.7,6.4c-5.8,0-9.3,3.6-9.3,9.6s3.5,9.6,9.3,9.6
	c5.8,0,9.2-3.6,9.2-9.6C104,10.1,100.5,6.4,94.7,6.4L94.7,6.4z M94.7,22.6c-2.5,0-3.6-1.6-3.6-6.5s1.1-6.5,3.6-6.5
	c2.5,0,3.5,1.5,3.5,6.5C98.3,21.1,97.2,22.6,94.7,22.6z"/>
</svg>
