<?xml version="1.0" encoding="utf-8"?>
<!-- Generator: Adobe Illustrator 27.4.1, SVG Export Plug-In . SVG Version: 6.00 Build 0)  -->
<svg version="1.1" id="Layer_4" xmlns="http://www.w3.org/2000/svg" xmlns:xlink="http://www.w3.org/1999/xlink" x="0px" y="0px"
	 viewBox="0 0 250 250" style="enable-background:new 0 0 250 250;" xml:space="preserve">
<style type="text/css">
	.st0{fill:#E2E2E2;}
	.st1{fill:#F2F2F2;}
	.st2{fill:#424242;}
</style>
<path class="st0" d="M125,0h120c2.8,0,5,2.2,5,5v120c0,69-56,125-125,125l0,0C56,250,0,194,0,125l0,0C0,56,56,0,125,0L125,0z"/>
<circle class="st1" cx="125" cy="125" r="110.7"/>
<path class="st2" d="M244,53c0,0.5-0.7,0.7-1,0.3C237.7,43.9,231,35,223,27c-8-8-16.8-14.7-26.2-20.1c-0.5-0.3-0.3-1,0.3-1l46.5,0
	c0.3,0,0.5,0.2,0.5,0.5V53z"/>
<path class="st2" d="M221.5,59.5c0,0.5-0.7,0.7-1,0.3c-3.9-5.9-8.5-11.4-13.7-16.6c-5.2-5.2-10.8-9.7-16.6-13.7
	c-0.4-0.3-0.2-1,0.3-1l30.5,0c0.3,0,0.5,0.2,0.5,0.5L221.5,59.5z"/>
</svg>
