<?xml version="1.0" encoding="utf-8"?>
<!-- Generator: Adobe Illustrator 27.4.1, SVG Export Plug-In . SVG Version: 6.00 Build 0)  -->
<svg version="1.1" id="Layer_2_00000092421423560234405570000013840949706440883092_"
	 xmlns="http://www.w3.org/2000/svg" xmlns:xlink="http://www.w3.org/1999/xlink" x="0px" y="0px" viewBox="0 0 250 250"
	 style="enable-background:new 0 0 250 250;" xml:space="preserve">
<style type="text/css">
	.st0{fill:#AEB4C1;}
	.st1{fill:#C7D0DD;stroke:#FFFFFF;stroke-width:4;stroke-miterlimit:10;}
	.st2{display:none;fill:#FFFFFF;}
	.st3{display:none;fill:#5182BC;}
	.st4{fill:#FFFFFF;}
</style>
<path class="st0" d="M125,0h120c2.8,0,5,2.2,5,5v120c0,69-56,125-125,125h0C56,250,0,194,0,125v0C0,56,56,0,125,0C125,0,125,0,125,0
	z"/>
<circle class="st1" cx="125" cy="125" r="105"/>
<path class="st2" d="M209.6,7h31.9c0.9,0,1.6,0.7,1.6,1.6v31.9c0,0.9-0.7,1.6-1.6,1.6c-0.4,0-0.8-0.2-1.1-0.5L208.5,9.7
	c-0.6-0.6-0.6-1.6,0-2.2C208.7,7.2,209.1,7,209.6,7z"/>
<path class="st2" d="M192.3,29h27.3c0.7,0,1.3,0.6,1.3,1.3v27.3c0,0.7-0.6,1.3-1.3,1.3c-0.4,0-0.7-0.1-0.9-0.4l-27.3-27.3
	c-0.5-0.5-0.5-1.4,0-1.9C191.6,29.1,192,29,192.3,29z"/>
<path class="st3" d="M250,68.5c0,37.8-30.7,68.5-68.5,68.5c-37.8,0-68.5-30.7-68.5-68.5C113,30.7,143.7,0,181.5,0
	c10.8,0,21.1,2.5,30.2,7c13.6,6.7,24.6,17.7,31.3,31.3C247.5,47.4,250,57.7,250,68.5z"/>
<path class="st2" d="M243,9.2l0,37.6c0,1.2-1.5,1.5-2.1,0.5C232,31.2,218.8,18,202.7,9.1c-1-0.6-0.6-2.1,0.5-2.1l37.6,0
	C242,7,243,8,243,9.2z"/>
<path class="st4" d="M189.3,28.7c-1.3,0-1.8,1.8-0.7,2.4c6,3.7,11.7,8.1,16.9,13.3s9.6,10.9,13.3,16.9c0.7,1.1,2.4,0.6,2.4-0.7V30.1
	c0-0.7-0.6-1.3-1.3-1.3H189.3z"/>
<path class="st4" d="M205.2,5.8c-1.6,0-2.2,2.1-0.8,3c7.3,4.5,14.3,9.9,20.6,16.2c6.3,6.3,11.8,13.3,16.2,20.6c0.8,1.4,3,0.8,3-0.8
	V7.4c0-0.9-0.7-1.6-1.6-1.6H205.2z"/>
</svg>
